<?xml version="1.0" encoding="UTF-8"?> <svg xmlns="http://www.w3.org/2000/svg" id="ab3637af-8150-4c77-99da-12531c748940" data-name="Capa 1" viewBox="0 0 832.7 965.4"><defs><style>.eb8c2f9e-b33e-4aea-a76d-0dd3445cadf6{fill:#e9d0ca;}.a8b142b5-4ce6-4f87-af23-c13dc49a2a0d{fill:#282120;}</style></defs><path class="eb8c2f9e-b33e-4aea-a76d-0dd3445cadf6" d="M737.5,100.6V617.2H670V154.3L530,487.9v.1l-7.1,16.9c-9.9-34.1-20.9-66.4-32.6-96.8l6.5-15.4L654.2,17.3h0A83.31,83.31,0,0,1,737.5,100.6Z"></path><path class="a8b142b5-4ce6-4f87-af23-c13dc49a2a0d" d="M555.7,616h0a5.74,5.74,0,0,1-6.8-4.6c-7.4-37.4-16.2-72.9-26-106.5v-.1C513,470.7,502,438.4,490.3,408,416,215.5,311.8,97,256.9,44c-6-5.8-11.5-10.9-16.3-15.1-2.3-2.1-4.5-4.1-6.6-5.8-2.6-2.3-4.9-4.2-6.9-5.8h18.1c2,1.7,4.1,3.7,6.5,5.8,1.6,1.5,3.3,3,5.1,4.7.3.3.8.7,1.2,1.1,52.9,49.6,161,167.9,238.8,363.8,11.9,29.9,23.1,61.7,33.2,95.3v.1a1247.22,1247.22,0,0,1,30.3,121.2A5.74,5.74,0,0,1,555.7,616Z"></path><path class="eb8c2f9e-b33e-4aea-a76d-0dd3445cadf6" d="M340.1,17.3H106.4a5.8,5.8,0,0,0,0,11.6h83.1V617.1H257V29h83.1a5.85,5.85,0,0,0,0-11.7Z"></path><path class="a8b142b5-4ce6-4f87-af23-c13dc49a2a0d" d="M49.8,687.5V819.3H37.3V687.5H11.6V675.6H75.5v11.9Z"></path><path class="a8b142b5-4ce6-4f87-af23-c13dc49a2a0d" d="M135,796.9l-34-37.2L89.5,819.2H77.4l28.9-143.7h15.2l30.6,143.7H139.6Zm-4.3-21.6-16.8-81.5L103.8,746Z"></path><path class="a8b142b5-4ce6-4f87-af23-c13dc49a2a0d" d="M191.7,687.5V819.3H179.2V687.5H153.5V675.6h63.9v11.9Z"></path><path class="a8b142b5-4ce6-4f87-af23-c13dc49a2a0d" d="M237.7,675.6h12.5V819.3H237.7Z"></path><path class="a8b142b5-4ce6-4f87-af23-c13dc49a2a0d" d="M401.1,675.6V819.3H388.6v-124l-31.4,45.2-31.2-45V819.3H313.5V675.6H327l30.6,43.7,30.6-43.7Z"></path><path class="a8b142b5-4ce6-4f87-af23-c13dc49a2a0d" d="M482.7,796.9l-34.1-37.2-11.5,59.5H425l28.9-143.7h15.2l30.6,143.7H487.2Zm-4.4-21.6-16.8-81.5-10,52.2Z"></path><path class="a8b142b5-4ce6-4f87-af23-c13dc49a2a0d" d="M566.4,728.7l-31,37.6v53H522.9V675.6H556c18.3,0,26.9,8.2,26.9,20.9C582.9,708.4,578.3,714.2,566.4,728.7Zm-7.4-8c8.8-10.9,10.9-15,10.9-22.6,0-7.4-4.7-10.7-13.8-10.7H535.4v62Z"></path><path class="a8b142b5-4ce6-4f87-af23-c13dc49a2a0d" d="M600.5,675.6h44.1v11.9H613v24.8h19.5v11.1H613v83.8h31.6v12.1H600.5Z"></path><path class="a8b142b5-4ce6-4f87-af23-c13dc49a2a0d" d="M679.2,807.2h35.1v12.1H666.7V675.6h12.5Z"></path><path class="a8b142b5-4ce6-4f87-af23-c13dc49a2a0d" d="M746.1,807.2h35.1v12.1H733.6V675.6h12.5Z"></path><path class="a8b142b5-4ce6-4f87-af23-c13dc49a2a0d" d="M801.1,675.6h12.5V819.3H801.1Z"></path><path class="a8b142b5-4ce6-4f87-af23-c13dc49a2a0d" d="M201.6,857l1.5-16.8h68.6l1.5,16.8-5.9-14.6H239.5v97.2l7.4,2.9H235.1V842.4H207.4Z"></path><path class="a8b142b5-4ce6-4f87-af23-c13dc49a2a0d" d="M280.2,872.4l-7.3-3h11.6v70.2l7.4,2.9H280.1V872.4Zm0-36.4,4.5-3v8.6l-4.5,3Z"></path><path class="a8b142b5-4ce6-4f87-af23-c13dc49a2a0d" d="M359.2,927c-8.9,12.5-17.4,17-27.5,17-18.8,0-34-15.1-34-39.2,0-21.5,12.2-36.8,30.3-36.8,17.5,0,29.7,14.2,29.7,34.9v2.2H302.1c0,22.5,13.4,35.6,31.1,35.6,7.8,0,16.6-2.5,24.6-15.2Zm-5.9-24.1c0-20.7-10.5-32.7-25.1-32.7-15.3,0-25.5,13.8-26.1,32.7Z"></path><path class="a8b142b5-4ce6-4f87-af23-c13dc49a2a0d" d="M428.2,939.6l7.3,2.9H423.9V890c0-11.4-6.8-19.3-19.2-19.3-16.8,0-29.2,14.2-29.2,34.6v34.2l7.4,2.9H371.1V872.3l-7.3-3h11.6v21.8c4.8-14.1,16.4-23.1,30.7-23.1,16.7,0,22,12.2,22,21.9v49.7Z"></path><path class="a8b142b5-4ce6-4f87-af23-c13dc49a2a0d" d="M495.9,926.9c-4.1,10.7-13.3,17.1-24.6,17.1-17.4,0-29.7-15.1-29.7-36.8,0-24.1,15.2-39.2,31.9-39.2,7.7,0,15.1,3.3,22.5,11.9V835.8l-7.3-2.9h11.6V939.5l7.3,2.9H496V926.9Zm-21-55.8c-15.5,0-28.9,13.1-28.9,36.4,0,20,10,34.2,25.6,34.2,14,0,24.4-11.4,24.4-27.5V882.9C488.7,873.2,480.9,871.1,474.9,871.1Z"></path><path class="a8b142b5-4ce6-4f87-af23-c13dc49a2a0d" d="M517.6,872.4l-7.3-3H522v70.2l7.4,2.9H517.6V872.4Zm0-36.4,4.5-3v8.6l-4.5,3Z"></path><path class="a8b142b5-4ce6-4f87-af23-c13dc49a2a0d" d="M529.9,869.4h13.4V850.5l-7.3-3h11.6v21.9h17.3l1.5,8.1-5.9-5.9H547.6v68l7.4,2.9H543.2V871.6H529.8v-2.2Z"></path><path class="a8b142b5-4ce6-4f87-af23-c13dc49a2a0d" d="M626.4,939.6l7.3,2.9H622V926.9c-4.1,10.7-13.3,17.1-24.6,17.1-17.4,0-29.7-15.1-29.7-36.8,0-24.1,15.2-39.2,31.9-39.2,7.7,0,15.1,3.3,22.5,11.9v-7.5l4.4-3v70.2Zm-25.5-68.5c-15.5,0-28.9,13.1-28.9,36.4,0,20,10,34.2,25.6,34.2,14,0,24.4-11.4,24.4-27.5V882.9C614.8,873.2,607,871.1,600.9,871.1Z"></path><circle class="eb8c2f9e-b33e-4aea-a76d-0dd3445cadf6" cx="373.7" cy="434.1" r="29.1"></circle></svg> 